# Precise Uneven Sphere
# Right Hemisphere (x>0): 250 vertices
# Left Hemisphere (x<0): 125 vertices
# Total Vertices: 375

v 0.000000 -0.000000 1.000000
v 0.000000 -0.000000 1.000000
v 0.000000 -0.000000 1.000000
v 0.000000 -0.000000 1.000000
v 0.000000 -0.000000 1.000000
v 0.000000 -0.000000 1.000000
v 0.000000 -0.000000 1.000000
v 0.000000 -0.000000 1.000000
v 0.000000 -0.000000 1.000000
v 0.000000 -0.000000 1.000000
v 0.000000 0.000000 1.000000
v 0.000000 0.000000 1.000000
v 0.000000 0.000000 1.000000
v 0.000000 0.000000 1.000000
v 0.000000 0.000000 1.000000
v 0.000000 0.000000 1.000000
v 0.000000 0.000000 1.000000
v 0.000000 0.000000 1.000000
v 0.000000 0.000000 1.000000
v 0.000000 0.000000 1.000000
v 0.000000 0.000000 1.000000
v 0.000000 -0.258819 0.965926
v 0.040488 -0.255633 0.965926
v 0.079979 -0.246152 0.965926
v 0.117501 -0.230609 0.965926
v 0.152130 -0.209389 0.965926
v 0.183013 -0.183013 0.965926
v 0.209389 -0.152130 0.965926
v 0.230609 -0.117501 0.965926
v 0.246152 -0.079979 0.965926
v 0.255633 -0.040488 0.965926
v 0.258819 0.000000 0.965926
v 0.255633 0.040488 0.965926
v 0.246152 0.079979 0.965926
v 0.230609 0.117501 0.965926
v 0.209389 0.152130 0.965926
v 0.183013 0.183013 0.965926
v 0.152130 0.209389 0.965926
v 0.117501 0.230609 0.965926
v 0.079979 0.246152 0.965926
v 0.040488 0.255633 0.965926
v 0.000000 0.258819 0.965926
v 0.000000 -0.500000 0.866025
v 0.078217 -0.493844 0.866025
v 0.154508 -0.475528 0.866025
v 0.226995 -0.445503 0.866025
v 0.293893 -0.404508 0.866025
v 0.353553 -0.353553 0.866025
v 0.404508 -0.293893 0.866025
v 0.445503 -0.226995 0.866025
v 0.475528 -0.154508 0.866025
v 0.493844 -0.078217 0.866025
v 0.500000 0.000000 0.866025
v 0.493844 0.078217 0.866025
v 0.475528 0.154508 0.866025
v 0.445503 0.226995 0.866025
v 0.404508 0.293893 0.866025
v 0.353553 0.353553 0.866025
v 0.293893 0.404508 0.866025
v 0.226995 0.445503 0.866025
v 0.154508 0.475528 0.866025
v 0.078217 0.493844 0.866025
v 0.000000 0.500000 0.866025
v 0.000000 -0.707107 0.707107
v 0.110616 -0.698401 0.707107
v 0.218508 -0.672499 0.707107
v 0.321020 -0.630037 0.707107
v 0.415627 -0.572061 0.707107
v 0.500000 -0.500000 0.707107
v 0.572061 -0.415627 0.707107
v 0.630037 -0.321020 0.707107
v 0.672499 -0.218508 0.707107
v 0.698401 -0.110616 0.707107
v 0.707107 0.000000 0.707107
v 0.698401 0.110616 0.707107
v 0.672499 0.218508 0.707107
v 0.630037 0.321020 0.707107
v 0.572061 0.415627 0.707107
v 0.500000 0.500000 0.707107
v 0.415627 0.572061 0.707107
v 0.321020 0.630037 0.707107
v 0.218508 0.672499 0.707107
v 0.110616 0.698401 0.707107
v 0.000000 0.707107 0.707107
v 0.000000 -0.866025 0.500000
v 0.135476 -0.855363 0.500000
v 0.267617 -0.823639 0.500000
v 0.393167 -0.771634 0.500000
v 0.509037 -0.700629 0.500000
v 0.612372 -0.612372 0.500000
v 0.700629 -0.509037 0.500000
v 0.771634 -0.393167 0.500000
v 0.823639 -0.267617 0.500000
v 0.855363 -0.135476 0.500000
v 0.866025 0.000000 0.500000
v 0.855363 0.135476 0.500000
v 0.823639 0.267617 0.500000
v 0.771634 0.393167 0.500000
v 0.700629 0.509037 0.500000
v 0.612372 0.612372 0.500000
v 0.509037 0.700629 0.500000
v 0.393167 0.771634 0.500000
v 0.267617 0.823639 0.500000
v 0.135476 0.855363 0.500000
v 0.000000 0.866025 0.500000
v 0.000000 -0.965926 0.258819
v 0.151104 -0.954034 0.258819
v 0.298487 -0.918650 0.258819
v 0.438521 -0.860646 0.258819
v 0.567757 -0.781450 0.258819
v 0.683013 -0.683013 0.258819
v 0.781450 -0.567757 0.258819
v 0.860646 -0.438521 0.258819
v 0.918650 -0.298487 0.258819
v 0.954034 -0.151104 0.258819
v 0.965926 0.000000 0.258819
v 0.954034 0.151104 0.258819
v 0.918650 0.298487 0.258819
v 0.860646 0.438521 0.258819
v 0.781450 0.567757 0.258819
v 0.683013 0.683013 0.258819
v 0.567757 0.781450 0.258819
v 0.438521 0.860646 0.258819
v 0.298487 0.918650 0.258819
v 0.151104 0.954034 0.258819
v 0.000000 0.965926 0.258819
v 0.000000 -1.000000 0.000000
v 0.156434 -0.987688 0.000000
v 0.309017 -0.951057 0.000000
v 0.453990 -0.891007 0.000000
v 0.587785 -0.809017 0.000000
v 0.707107 -0.707107 0.000000
v 0.809017 -0.587785 0.000000
v 0.891007 -0.453990 0.000000
v 0.951057 -0.309017 0.000000
v 0.987688 -0.156434 0.000000
v 1.000000 0.000000 0.000000
v 0.987688 0.156434 0.000000
v 0.951057 0.309017 0.000000
v 0.891007 0.453990 0.000000
v 0.809017 0.587785 0.000000
v 0.707107 0.707107 0.000000
v 0.587785 0.809017 0.000000
v 0.453990 0.891007 0.000000
v 0.309017 0.951057 0.000000
v 0.156434 0.987688 0.000000
v 0.000000 1.000000 0.000000
v 0.000000 -0.965926 -0.258819
v 0.151104 -0.954034 -0.258819
v 0.298487 -0.918650 -0.258819
v 0.438521 -0.860646 -0.258819
v 0.567757 -0.781450 -0.258819
v 0.683013 -0.683013 -0.258819
v 0.781450 -0.567757 -0.258819
v 0.860646 -0.438521 -0.258819
v 0.918650 -0.298487 -0.258819
v 0.954034 -0.151104 -0.258819
v 0.965926 0.000000 -0.258819
v 0.954034 0.151104 -0.258819
v 0.918650 0.298487 -0.258819
v 0.860646 0.438521 -0.258819
v 0.781450 0.567757 -0.258819
v 0.683013 0.683013 -0.258819
v 0.567757 0.781450 -0.258819
v 0.438521 0.860646 -0.258819
v 0.298487 0.918650 -0.258819
v 0.151104 0.954034 -0.258819
v 0.000000 0.965926 -0.258819
v 0.000000 -0.866025 -0.500000
v 0.135476 -0.855363 -0.500000
v 0.267617 -0.823639 -0.500000
v 0.393167 -0.771634 -0.500000
v 0.509037 -0.700629 -0.500000
v 0.612372 -0.612372 -0.500000
v 0.700629 -0.509037 -0.500000
v 0.771634 -0.393167 -0.500000
v 0.823639 -0.267617 -0.500000
v 0.855363 -0.135476 -0.500000
v 0.866025 0.000000 -0.500000
v 0.855363 0.135476 -0.500000
v 0.823639 0.267617 -0.500000
v 0.771634 0.393167 -0.500000
v 0.700629 0.509037 -0.500000
v 0.612372 0.612372 -0.500000
v 0.509037 0.700629 -0.500000
v 0.393167 0.771634 -0.500000
v 0.267617 0.823639 -0.500000
v 0.135476 0.855363 -0.500000
v 0.000000 0.866025 -0.500000
v 0.000000 -0.707107 -0.707107
v 0.110616 -0.698401 -0.707107
v 0.218508 -0.672499 -0.707107
v 0.321020 -0.630037 -0.707107
v 0.415627 -0.572061 -0.707107
v 0.500000 -0.500000 -0.707107
v 0.572061 -0.415627 -0.707107
v 0.630037 -0.321020 -0.707107
v 0.672499 -0.218508 -0.707107
v 0.698401 -0.110616 -0.707107
v 0.707107 0.000000 -0.707107
v 0.698401 0.110616 -0.707107
v 0.672499 0.218508 -0.707107
v 0.630037 0.321020 -0.707107
v 0.572061 0.415627 -0.707107
v 0.500000 0.500000 -0.707107
v 0.415627 0.572061 -0.707107
v 0.321020 0.630037 -0.707107
v 0.218508 0.672499 -0.707107
v 0.110616 0.698401 -0.707107
v 0.000000 0.707107 -0.707107
v 0.000000 -0.500000 -0.866025
v 0.078217 -0.493844 -0.866025
v 0.154508 -0.475528 -0.866025
v 0.226995 -0.445503 -0.866025
v 0.293893 -0.404508 -0.866025
v 0.353553 -0.353553 -0.866025
v 0.404508 -0.293893 -0.866025
v 0.445503 -0.226995 -0.866025
v 0.475528 -0.154508 -0.866025
v 0.493844 -0.078217 -0.866025
v 0.500000 0.000000 -0.866025
v 0.493844 0.078217 -0.866025
v 0.475528 0.154508 -0.866025
v 0.445503 0.226995 -0.866025
v 0.404508 0.293893 -0.866025
v 0.353553 0.353553 -0.866025
v 0.293893 0.404508 -0.866025
v 0.226995 0.445503 -0.866025
v 0.154508 0.475528 -0.866025
v 0.078217 0.493844 -0.866025
v 0.000000 0.500000 -0.866025
v 0.000000 -0.258819 -0.965926
v 0.040488 -0.255633 -0.965926
v 0.079979 -0.246152 -0.965926
v 0.117501 -0.230609 -0.965926
v 0.152130 -0.209389 -0.965926
v 0.183013 -0.183013 -0.965926
v 0.209389 -0.152130 -0.965926
v 0.230609 -0.117501 -0.965926
v 0.246152 -0.079979 -0.965926
v 0.255633 -0.040488 -0.965926
v 0.258819 0.000000 -0.965926
v 0.255633 0.040488 -0.965926
v 0.246152 0.079979 -0.965926
v 0.230609 0.117501 -0.965926
v 0.209389 0.152130 -0.965926
v 0.183013 0.183013 -0.965926
v 0.152130 0.209389 -0.965926
v 0.117501 0.230609 -0.965926
v 0.079979 0.246152 -0.965926
v 0.000000 0.000000 1.000000
v -0.000000 0.000000 1.000000
v -0.000000 0.000000 1.000000
v -0.000000 0.000000 1.000000
v -0.000000 0.000000 1.000000
v -0.000000 0.000000 1.000000
v -0.000000 0.000000 1.000000
v -0.000000 0.000000 1.000000
v -0.000000 -0.000000 1.000000
v -0.000000 -0.000000 1.000000
v -0.000000 -0.000000 1.000000
v -0.000000 -0.000000 1.000000
v -0.000000 -0.000000 1.000000
v -0.000000 -0.000000 1.000000
v -0.000000 -0.000000 1.000000
v -0.000000 -0.000000 1.000000
v -0.053812 0.253163 0.965926
v -0.105271 0.236443 0.965926
v -0.152130 0.209389 0.965926
v -0.192340 0.173184 0.965926
v -0.224144 0.129410 0.965926
v -0.246152 0.079979 0.965926
v -0.257401 0.027054 0.965926
v -0.257401 -0.027054 0.965926
v -0.246152 -0.079979 0.965926
v -0.224144 -0.129410 0.965926
v -0.192340 -0.173184 0.965926
v -0.152130 -0.209389 0.965926
v -0.105271 -0.236443 0.965926
v -0.053812 -0.253163 0.965926
v -0.000000 -0.258819 0.965926
v -0.103956 0.489074 0.866025
v -0.203368 0.456773 0.866025
v -0.293893 0.404508 0.866025
v -0.371572 0.334565 0.866025
v -0.433013 0.250000 0.866025
v -0.475528 0.154508 0.866025
v -0.497261 0.052264 0.866025
v -0.497261 -0.052264 0.866025
v -0.475528 -0.154508 0.866025
v -0.433013 -0.250000 0.866025
v -0.371572 -0.334565 0.866025
v -0.293893 -0.404508 0.866025
v -0.203368 -0.456773 0.866025
v -0.103956 -0.489074 0.866025
v -0.000000 -0.500000 0.866025
v -0.147016 0.691655 0.707107
v -0.287606 0.645974 0.707107
v -0.415627 0.572061 0.707107
v -0.525483 0.473147 0.707107
v -0.612372 0.353553 0.707107
v -0.672499 0.218508 0.707107
v -0.703233 0.073913 0.707107
v -0.703233 -0.073913 0.707107
v -0.672499 -0.218508 0.707107
v -0.612372 -0.353553 0.707107
v -0.525483 -0.473147 0.707107
v -0.415627 -0.572061 0.707107
v -0.287606 -0.645974 0.707107
v -0.147016 -0.691655 0.707107
v -0.000000 -0.707107 0.707107
v -0.180057 0.847101 0.500000
v -0.352244 0.791154 0.500000
v -0.509037 0.700629 0.500000
v -0.643582 0.579484 0.500000
v -0.750000 0.433013 0.500000
v -0.823639 0.267617 0.500000
v -0.861281 0.090524 0.500000
v -0.861281 -0.090524 0.500000
v -0.823639 -0.267617 0.500000
v -0.750000 -0.433013 0.500000
v -0.643582 -0.579484 0.500000
v -0.509037 -0.700629 0.500000
v -0.352244 -0.791154 0.500000
v -0.180057 -0.847101 0.500000
v -0.000000 -0.866025 0.500000
v -0.200827 0.944818 0.258819
v -0.392877 0.882417 0.258819
v -0.567757 0.781450 0.258819
v -0.717823 0.646331 0.258819
v -0.836516 0.482963 0.258819
v -0.918650 0.298487 0.258819
v -0.960634 0.100967 0.258819
v -0.960634 -0.100967 0.258819
v -0.918650 -0.298487 0.258819
v -0.836516 -0.482963 0.258819
v -0.717823 -0.646331 0.258819
v -0.567757 -0.781450 0.258819
v -0.392877 -0.882417 0.258819
v -0.200827 -0.944818 0.258819
v -0.000000 -0.965926 0.258819
v -0.207912 0.978148 0.000000
v -0.406737 0.913545 0.000000
v -0.587785 0.809017 0.000000
v -0.743145 0.669131 0.000000
v -0.866025 0.500000 0.000000
v -0.951057 0.309017 0.000000
v -0.994522 0.104528 0.000000
v -0.994522 -0.104528 0.000000
v -0.951057 -0.309017 0.000000
v -0.866025 -0.500000 0.000000
v -0.743145 -0.669131 0.000000
v -0.587785 -0.809017 0.000000
v -0.406737 -0.913545 0.000000
v -0.207912 -0.978148 0.000000
v -0.000000 -1.000000 0.000000
v -0.200827 0.944818 -0.258819
v -0.392877 0.882417 -0.258819
v -0.567757 0.781450 -0.258819
v -0.717823 0.646331 -0.258819
v -0.836516 0.482963 -0.258819
v -0.918650 0.298487 -0.258819
v -0.960634 0.100967 -0.258819
v -0.960634 -0.100967 -0.258819
v -0.918650 -0.298487 -0.258819
v -0.836516 -0.482963 -0.258819
v -0.717823 -0.646331 -0.258819
v -0.567757 -0.781450 -0.258819
v -0.392877 -0.882417 -0.258819
v -0.200827 -0.944818 -0.258819
v -0.000000 -0.965926 -0.258819
v -0.180057 0.847101 -0.500000
v -0.352244 0.791154 -0.500000
v -0.509037 0.700629 -0.500000
v -0.643582 0.579484 -0.500000

# Vertex Normals
vn 0.000000 -0.000000 1.000000
vn 0.000000 -0.000000 1.000000
vn 0.000000 -0.000000 1.000000
vn 0.000000 -0.000000 1.000000
vn 0.000000 -0.000000 1.000000
vn 0.000000 -0.000000 1.000000
vn 0.000000 -0.000000 1.000000
vn 0.000000 -0.000000 1.000000
vn 0.000000 -0.000000 1.000000
vn 0.000000 -0.000000 1.000000
vn 0.000000 0.000000 1.000000
vn 0.000000 0.000000 1.000000
vn 0.000000 0.000000 1.000000
vn 0.000000 0.000000 1.000000
vn 0.000000 0.000000 1.000000
vn 0.000000 0.000000 1.000000
vn 0.000000 0.000000 1.000000
vn 0.000000 0.000000 1.000000
vn 0.000000 0.000000 1.000000
vn 0.000000 0.000000 1.000000
vn 0.000000 0.000000 1.000000
vn 0.000000 -0.258819 0.965926
vn 0.040488 -0.255633 0.965926
vn 0.079979 -0.246152 0.965926
vn 0.117501 -0.230609 0.965926
vn 0.152130 -0.209389 0.965926
vn 0.183013 -0.183013 0.965926
vn 0.209389 -0.152130 0.965926
vn 0.230609 -0.117501 0.965926
vn 0.246152 -0.079979 0.965926
vn 0.255633 -0.040488 0.965926
vn 0.258819 0.000000 0.965926
vn 0.255633 0.040488 0.965926
vn 0.246152 0.079979 0.965926
vn 0.230609 0.117501 0.965926
vn 0.209389 0.152130 0.965926
vn 0.183013 0.183013 0.965926
vn 0.152130 0.209389 0.965926
vn 0.117501 0.230609 0.965926
vn 0.079979 0.246152 0.965926
vn 0.040488 0.255633 0.965926
vn 0.000000 0.258819 0.965926
vn 0.000000 -0.500000 0.866025
vn 0.078217 -0.493844 0.866025
vn 0.154508 -0.475528 0.866025
vn 0.226995 -0.445503 0.866025
vn 0.293893 -0.404508 0.866025
vn 0.353553 -0.353553 0.866025
vn 0.404508 -0.293893 0.866025
vn 0.445503 -0.226995 0.866025
vn 0.475528 -0.154508 0.866025
vn 0.493844 -0.078217 0.866025
vn 0.500000 0.000000 0.866025
vn 0.493844 0.078217 0.866025
vn 0.475528 0.154508 0.866025
vn 0.445503 0.226995 0.866025
vn 0.404508 0.293893 0.866025
vn 0.353553 0.353553 0.866025
vn 0.293893 0.404508 0.866025
vn 0.226995 0.445503 0.866025
vn 0.154508 0.475528 0.866025
vn 0.078217 0.493844 0.866025
vn 0.000000 0.500000 0.866025
vn 0.000000 -0.707107 0.707107
vn 0.110616 -0.698401 0.707107
vn 0.218508 -0.672499 0.707107
vn 0.321020 -0.630037 0.707107
vn 0.415627 -0.572061 0.707107
vn 0.500000 -0.500000 0.707107
vn 0.572061 -0.415627 0.707107
vn 0.630037 -0.321020 0.707107
vn 0.672499 -0.218508 0.707107
vn 0.698401 -0.110616 0.707107
vn 0.707107 0.000000 0.707107
vn 0.698401 0.110616 0.707107
vn 0.672499 0.218508 0.707107
vn 0.630037 0.321020 0.707107
vn 0.572061 0.415627 0.707107
vn 0.500000 0.500000 0.707107
vn 0.415627 0.572061 0.707107
vn 0.321020 0.630037 0.707107
vn 0.218508 0.672499 0.707107
vn 0.110616 0.698401 0.707107
vn 0.000000 0.707107 0.707107
vn 0.000000 -0.866025 0.500000
vn 0.135476 -0.855363 0.500000
vn 0.267617 -0.823639 0.500000
vn 0.393167 -0.771634 0.500000
vn 0.509037 -0.700629 0.500000
vn 0.612372 -0.612372 0.500000
vn 0.700629 -0.509037 0.500000
vn 0.771634 -0.393167 0.500000
vn 0.823639 -0.267617 0.500000
vn 0.855363 -0.135476 0.500000
vn 0.866025 0.000000 0.500000
vn 0.855363 0.135476 0.500000
vn 0.823639 0.267617 0.500000
vn 0.771634 0.393167 0.500000
vn 0.700629 0.509037 0.500000
vn 0.612372 0.612372 0.500000
vn 0.509037 0.700629 0.500000
vn 0.393167 0.771634 0.500000
vn 0.267617 0.823639 0.500000
vn 0.135476 0.855363 0.500000
vn 0.000000 0.866025 0.500000
vn 0.000000 -0.965926 0.258819
vn 0.151104 -0.954034 0.258819
vn 0.298487 -0.918650 0.258819
vn 0.438521 -0.860646 0.258819
vn 0.567757 -0.781450 0.258819
vn 0.683013 -0.683013 0.258819
vn 0.781450 -0.567757 0.258819
vn 0.860646 -0.438521 0.258819
vn 0.918650 -0.298487 0.258819
vn 0.954034 -0.151104 0.258819
vn 0.965926 0.000000 0.258819
vn 0.954034 0.151104 0.258819
vn 0.918650 0.298487 0.258819
vn 0.860646 0.438521 0.258819
vn 0.781450 0.567757 0.258819
vn 0.683013 0.683013 0.258819
vn 0.567757 0.781450 0.258819
vn 0.438521 0.860646 0.258819
vn 0.298487 0.918650 0.258819
vn 0.151104 0.954034 0.258819
vn 0.000000 0.965926 0.258819
vn 0.000000 -1.000000 0.000000
vn 0.156434 -0.987688 0.000000
vn 0.309017 -0.951057 0.000000
vn 0.453990 -0.891007 0.000000
vn 0.587785 -0.809017 0.000000
vn 0.707107 -0.707107 0.000000
vn 0.809017 -0.587785 0.000000
vn 0.891007 -0.453990 0.000000
vn 0.951057 -0.309017 0.000000
vn 0.987688 -0.156434 0.000000
vn 1.000000 0.000000 0.000000
vn 0.987688 0.156434 0.000000
vn 0.951057 0.309017 0.000000
vn 0.891007 0.453990 0.000000
vn 0.809017 0.587785 0.000000
vn 0.707107 0.707107 0.000000
vn 0.587785 0.809017 0.000000
vn 0.453990 0.891007 0.000000
vn 0.309017 0.951057 0.000000
vn 0.156434 0.987688 0.000000
vn 0.000000 1.000000 0.000000
vn 0.000000 -0.965926 -0.258819
vn 0.151104 -0.954034 -0.258819
vn 0.298487 -0.918650 -0.258819
vn 0.438521 -0.860646 -0.258819
vn 0.567757 -0.781450 -0.258819
vn 0.683013 -0.683013 -0.258819
vn 0.781450 -0.567757 -0.258819
vn 0.860646 -0.438521 -0.258819
vn 0.918650 -0.298487 -0.258819
vn 0.954034 -0.151104 -0.258819
vn 0.965926 0.000000 -0.258819
vn 0.954034 0.151104 -0.258819
vn 0.918650 0.298487 -0.258819
vn 0.860646 0.438521 -0.258819
vn 0.781450 0.567757 -0.258819
vn 0.683013 0.683013 -0.258819
vn 0.567757 0.781450 -0.258819
vn 0.438521 0.860646 -0.258819
vn 0.298487 0.918650 -0.258819
vn 0.151104 0.954034 -0.258819
vn 0.000000 0.965926 -0.258819
vn 0.000000 -0.866025 -0.500000
vn 0.135476 -0.855363 -0.500000
vn 0.267617 -0.823639 -0.500000
vn 0.393167 -0.771634 -0.500000
vn 0.509037 -0.700629 -0.500000
vn 0.612372 -0.612372 -0.500000
vn 0.700629 -0.509037 -0.500000
vn 0.771634 -0.393167 -0.500000
vn 0.823639 -0.267617 -0.500000
vn 0.855363 -0.135476 -0.500000
vn 0.866025 0.000000 -0.500000
vn 0.855363 0.135476 -0.500000
vn 0.823639 0.267617 -0.500000
vn 0.771634 0.393167 -0.500000
vn 0.700629 0.509037 -0.500000
vn 0.612372 0.612372 -0.500000
vn 0.509037 0.700629 -0.500000
vn 0.393167 0.771634 -0.500000
vn 0.267617 0.823639 -0.500000
vn 0.135476 0.855363 -0.500000
vn 0.000000 0.866025 -0.500000
vn 0.000000 -0.707107 -0.707107
vn 0.110616 -0.698401 -0.707107
vn 0.218508 -0.672499 -0.707107
vn 0.321020 -0.630037 -0.707107
vn 0.415627 -0.572061 -0.707107
vn 0.500000 -0.500000 -0.707107
vn 0.572061 -0.415627 -0.707107
vn 0.630037 -0.321020 -0.707107
vn 0.672499 -0.218508 -0.707107
vn 0.698401 -0.110616 -0.707107
vn 0.707107 0.000000 -0.707107
vn 0.698401 0.110616 -0.707107
vn 0.672499 0.218508 -0.707107
vn 0.630037 0.321020 -0.707107
vn 0.572061 0.415627 -0.707107
vn 0.500000 0.500000 -0.707107
vn 0.415627 0.572061 -0.707107
vn 0.321020 0.630037 -0.707107
vn 0.218508 0.672499 -0.707107
vn 0.110616 0.698401 -0.707107
vn 0.000000 0.707107 -0.707107
vn 0.000000 -0.500000 -0.866025
vn 0.078217 -0.493844 -0.866025
vn 0.154508 -0.475528 -0.866025
vn 0.226995 -0.445503 -0.866025
vn 0.293893 -0.404508 -0.866025
vn 0.353553 -0.353553 -0.866025
vn 0.404508 -0.293893 -0.866025
vn 0.445503 -0.226995 -0.866025
vn 0.475528 -0.154508 -0.866025
vn 0.493844 -0.078217 -0.866025
vn 0.500000 0.000000 -0.866025
vn 0.493844 0.078217 -0.866025
vn 0.475528 0.154508 -0.866025
vn 0.445503 0.226995 -0.866025
vn 0.404508 0.293893 -0.866025
vn 0.353553 0.353553 -0.866025
vn 0.293893 0.404508 -0.866025
vn 0.226995 0.445503 -0.866025
vn 0.154508 0.475528 -0.866025
vn 0.078217 0.493844 -0.866025
vn 0.000000 0.500000 -0.866025
vn 0.000000 -0.258819 -0.965926
vn 0.040488 -0.255633 -0.965926
vn 0.079979 -0.246152 -0.965926
vn 0.117501 -0.230609 -0.965926
vn 0.152130 -0.209389 -0.965926
vn 0.183013 -0.183013 -0.965926
vn 0.209389 -0.152130 -0.965926
vn 0.230609 -0.117501 -0.965926
vn 0.246152 -0.079979 -0.965926
vn 0.255633 -0.040488 -0.965926
vn 0.258819 0.000000 -0.965926
vn 0.255633 0.040488 -0.965926
vn 0.246152 0.079979 -0.965926
vn 0.230609 0.117501 -0.965926
vn 0.209389 0.152130 -0.965926
vn 0.183013 0.183013 -0.965926
vn 0.152130 0.209389 -0.965926
vn 0.117501 0.230609 -0.965926
vn 0.079979 0.246152 -0.965926
vn 0.000000 0.000000 1.000000
vn -0.000000 0.000000 1.000000
vn -0.000000 0.000000 1.000000
vn -0.000000 0.000000 1.000000
vn -0.000000 0.000000 1.000000
vn -0.000000 0.000000 1.000000
vn -0.000000 0.000000 1.000000
vn -0.000000 0.000000 1.000000
vn -0.000000 -0.000000 1.000000
vn -0.000000 -0.000000 1.000000
vn -0.000000 -0.000000 1.000000
vn -0.000000 -0.000000 1.000000
vn -0.000000 -0.000000 1.000000
vn -0.000000 -0.000000 1.000000
vn -0.000000 -0.000000 1.000000
vn -0.000000 -0.000000 1.000000
vn -0.053812 0.253163 0.965926
vn -0.105271 0.236443 0.965926
vn -0.152130 0.209389 0.965926
vn -0.192340 0.173184 0.965926
vn -0.224144 0.129410 0.965926
vn -0.246152 0.079979 0.965926
vn -0.257401 0.027054 0.965926
vn -0.257401 -0.027054 0.965926
vn -0.246152 -0.079979 0.965926
vn -0.224144 -0.129410 0.965926
vn -0.192340 -0.173184 0.965926
vn -0.152130 -0.209389 0.965926
vn -0.105271 -0.236443 0.965926
vn -0.053812 -0.253163 0.965926
vn -0.000000 -0.258819 0.965926
vn -0.103956 0.489074 0.866025
vn -0.203368 0.456773 0.866025
vn -0.293893 0.404508 0.866025
vn -0.371572 0.334565 0.866025
vn -0.433013 0.250000 0.866025
vn -0.475528 0.154508 0.866025
vn -0.497261 0.052264 0.866025
vn -0.497261 -0.052264 0.866025
vn -0.475528 -0.154508 0.866025
vn -0.433013 -0.250000 0.866025
vn -0.371572 -0.334565 0.866025
vn -0.293893 -0.404508 0.866025
vn -0.203368 -0.456773 0.866025
vn -0.103956 -0.489074 0.866025
vn -0.000000 -0.500000 0.866025
vn -0.147016 0.691655 0.707107
vn -0.287606 0.645974 0.707107
vn -0.415627 0.572061 0.707107
vn -0.525483 0.473147 0.707107
vn -0.612372 0.353553 0.707107
vn -0.672499 0.218508 0.707107
vn -0.703233 0.073913 0.707107
vn -0.703233 -0.073913 0.707107
vn -0.672499 -0.218508 0.707107
vn -0.612372 -0.353553 0.707107
vn -0.525483 -0.473147 0.707107
vn -0.415627 -0.572061 0.707107
vn -0.287606 -0.645974 0.707107
vn -0.147016 -0.691655 0.707107
vn -0.000000 -0.707107 0.707107
vn -0.180057 0.847101 0.500000
vn -0.352244 0.791154 0.500000
vn -0.509037 0.700629 0.500000
vn -0.643582 0.579484 0.500000
vn -0.750000 0.433013 0.500000
vn -0.823639 0.267617 0.500000
vn -0.861281 0.090524 0.500000
vn -0.861281 -0.090524 0.500000
vn -0.823639 -0.267617 0.500000
vn -0.750000 -0.433013 0.500000
vn -0.643582 -0.579484 0.500000
vn -0.509037 -0.700629 0.500000
vn -0.352244 -0.791154 0.500000
vn -0.180057 -0.847101 0.500000
vn -0.000000 -0.866025 0.500000
vn -0.200827 0.944818 0.258819
vn -0.392877 0.882417 0.258819
vn -0.567757 0.781450 0.258819
vn -0.717823 0.646331 0.258819
vn -0.836516 0.482963 0.258819
vn -0.918650 0.298487 0.258819
vn -0.960634 0.100967 0.258819
vn -0.960634 -0.100967 0.258819
vn -0.918650 -0.298487 0.258819
vn -0.836516 -0.482963 0.258819
vn -0.717823 -0.646331 0.258819
vn -0.567757 -0.781450 0.258819
vn -0.392877 -0.882417 0.258819
vn -0.200827 -0.944818 0.258819
vn -0.000000 -0.965926 0.258819
vn -0.207912 0.978148 0.000000
vn -0.406737 0.913545 0.000000
vn -0.587785 0.809017 0.000000
vn -0.743145 0.669131 0.000000
vn -0.866025 0.500000 0.000000
vn -0.951057 0.309017 0.000000
vn -0.994522 0.104528 0.000000
vn -0.994522 -0.104528 0.000000
vn -0.951057 -0.309017 0.000000
vn -0.866025 -0.500000 0.000000
vn -0.743145 -0.669131 0.000000
vn -0.587785 -0.809017 0.000000
vn -0.406737 -0.913545 0.000000
vn -0.207912 -0.978148 0.000000
vn -0.000000 -1.000000 0.000000
vn -0.200827 0.944818 -0.258819
vn -0.392877 0.882417 -0.258819
vn -0.567757 0.781450 -0.258819
vn -0.717823 0.646331 -0.258819
vn -0.836516 0.482963 -0.258819
vn -0.918650 0.298487 -0.258819
vn -0.960634 0.100967 -0.258819
vn -0.960634 -0.100967 -0.258819
vn -0.918650 -0.298487 -0.258819
vn -0.836516 -0.482963 -0.258819
vn -0.717823 -0.646331 -0.258819
vn -0.567757 -0.781450 -0.258819
vn -0.392877 -0.882417 -0.258819
vn -0.200827 -0.944818 -0.258819
vn -0.000000 -0.965926 -0.258819
vn -0.180057 0.847101 -0.500000
vn -0.352244 0.791154 -0.500000
vn -0.509037 0.700629 -0.500000
vn -0.643582 0.579484 -0.500000

# Faces (simplified)
